<?xml version="1.0" encoding="UTF-8"?>
<svg version="1.1" xmlns="http://www.w3.org/2000/svg" width="32" height="32">
<path d="M0 0 C10.56 0 21.12 0 32 0 C32 10.56 32 21.12 32 32 C21.44 32 10.88 32 0 32 C0 21.44 0 10.88 0 0 Z " fill="#1E1D1A" transform="translate(0,0)"/>
<path d="M0 0 C1.32 0.33 2.64 0.66 4 1 C3.67 2.32 3.34 3.64 3 5 C2.01 5 1.02 5 0 5 C-1.38771413 8.18503552 -1.38771413 8.18503552 -2 12 C-0.14749996 15.23761134 -0.14749996 15.23761134 2 18 C1.67 18.99 1.34 19.98 1 21 C0.21625 20.175 -0.5675 19.35 -1.375 18.5 C-3.63721264 15.77011494 -3.63721264 15.77011494 -6 16 C-6.495 16.825 -6.99 17.65 -7.5 18.5 C-7.995 19.325 -8.49 20.15 -9 21 C-9.66 21 -10.32 21 -11 21 C-12.28006797 19.21601386 -13.47660351 17.37146094 -14.625 15.5 C-15.25664062 14.4790625 -15.88828125 13.458125 -16.5390625 12.40625 C-17.02117188 11.6121875 -17.50328125 10.818125 -18 10 C-18.33 13.3 -18.66 16.6 -19 20 C-19.99 20 -20.98 20 -22 20 C-22 14.06 -22 8.12 -22 2 C-18 3 -18 3 -16.296875 5.28515625 C-15.78640625 6.20167969 -15.2759375 7.11820313 -14.75 8.0625 C-13.96882812 9.44115234 -13.96882812 9.44115234 -13.171875 10.84765625 C-12.78515625 11.55792969 -12.3984375 12.26820312 -12 13 C-11.67 9.37 -11.34 5.74 -11 2 C-7 4 -7 4 -6.25 6.125 C-6.12625 7.053125 -6.12625 7.053125 -6 8 C-3.38472619 5.63379989 -1.73559438 3.057952 0 0 Z " fill="#C0BFBF" transform="translate(26,5)"/>
<path d="M0 0 C4.35850159 1.0896254 4.90368767 1.80399359 7.14648438 5.46484375 C7.66178711 6.34849609 7.66178711 6.34849609 8.1875 7.25 C8.54263672 7.82363281 8.89777344 8.39726562 9.26367188 8.98828125 C11.24559747 12.29023698 12.51787349 15.17177159 13 19 C12.34 19 11.68 19 11 19 C9.71993203 17.21601386 8.52339649 15.37146094 7.375 13.5 C6.74335938 12.4790625 6.11171875 11.458125 5.4609375 10.40625 C4.97882812 9.6121875 4.49671875 8.818125 4 8 C3.67 11.3 3.34 14.6 3 18 C2.01 18 1.02 18 0 18 C0 12.06 0 6.12 0 0 Z " fill="#E3E2E2" transform="translate(4,7)"/>
<path d="M0 0 C1.32 0.33 2.64 0.66 4 1 C3.67 2.32 3.34 3.64 3 5 C2.01 5 1.02 5 0 5 C-0.433125 6.1446875 -0.433125 6.1446875 -0.875 7.3125 C-2 10 -2 10 -4 13 C-4.66 13 -5.32 13 -6 13 C-6 11.68 -6 10.36 -6 9 C-5.34 9 -4.68 9 -4 9 C-3.71125 8.071875 -3.4225 7.14375 -3.125 6.1875 C-2 3 -2 3 0 0 Z " fill="#CAC7C4" transform="translate(26,5)"/>
<path d="M0 0 C2.0625 2.125 2.0625 2.125 4 5 C3.75 8.3125 3.75 8.3125 3 11 C1.68 11 0.36 11 -1 11 C-0.67 7.37 -0.34 3.74 0 0 Z " fill="#70706D" transform="translate(15,9)"/>
<path d="M0 0 C0.99 0 1.98 0 3 0 C5.90322818 3.64977257 7 5.25852179 7 10 C6.34 10 5.68 10 5 10 C3.7109375 8.3203125 3.7109375 8.3203125 2.375 6.125 C1.92898438 5.40570312 1.48296875 4.68640625 1.0234375 3.9453125 C0 2 0 2 0 0 Z " fill="#E9E9E8" transform="translate(10,16)"/>
<path d="M0 0 C0.66 0 1.32 0 2 0 C4.1875 2.8125 4.1875 2.8125 6 6 C5.67 6.99 5.34 7.98 5 9 C2.5 6.75 2.5 6.75 0 4 C0 2.68 0 1.36 0 0 Z " fill="#AEADAC" transform="translate(22,17)"/>
<path d="M0 0 C0.99 0.66 1.98 1.32 3 2 C1.02 4.97 1.02 4.97 -1 8 C-1.66 6.68 -2.32 5.36 -3 4 C-2.01 2.68 -1.02 1.36 0 0 Z " fill="#B9B8B8" transform="translate(19,17)"/>
</svg>
